<mxfile host="app.diagrams.net" modified="2023-11-08T08:24:07.838Z" agent="Mozilla/5.0 (Windows NT 10.0; Win64; x64) AppleWebKit/537.36 (KHTML, like Gecko) Chrome/119.0.0.0 Safari/537.36" etag="P1XO-nrsdn3Cc8ieUTAN" version="22.0.8" type="github">
  <diagram name="Page-1" id="Z1H5cb4nOgfpt247MVPV">
    <mxGraphModel dx="882" dy="604" grid="1" gridSize="10" guides="1" tooltips="1" connect="1" arrows="1" fold="1" page="1" pageScale="1" pageWidth="827" pageHeight="1169" math="0" shadow="0">
      <root>
        <mxCell id="0" />
        <mxCell id="1" parent="0" />
        <mxCell id="l4y7giBjrZG4BQ_seJTM-13" style="edgeStyle=orthogonalEdgeStyle;rounded=0;orthogonalLoop=1;jettySize=auto;html=1;strokeColor=default;endArrow=none;endFill=0;" parent="1" source="l4y7giBjrZG4BQ_seJTM-2" edge="1">
          <mxGeometry relative="1" as="geometry">
            <mxPoint x="440" y="95" as="targetPoint" />
          </mxGeometry>
        </mxCell>
        <mxCell id="l4y7giBjrZG4BQ_seJTM-2" value="Association" style="swimlane;whiteSpace=wrap;html=1;" parent="1" vertex="1">
          <mxGeometry x="30" y="70" width="200" height="50" as="geometry" />
        </mxCell>
        <mxCell id="l4y7giBjrZG4BQ_seJTM-3" value="&lt;u&gt;Nom_association&lt;/u&gt;" style="text;html=1;strokeColor=none;fillColor=none;align=center;verticalAlign=middle;whiteSpace=wrap;rounded=0;" parent="l4y7giBjrZG4BQ_seJTM-2" vertex="1">
          <mxGeometry x="70" y="20" width="60" height="30" as="geometry" />
        </mxCell>
        <mxCell id="l4y7giBjrZG4BQ_seJTM-18" style="edgeStyle=orthogonalEdgeStyle;rounded=0;orthogonalLoop=1;jettySize=auto;html=1;exitX=0.5;exitY=1;exitDx=0;exitDy=0;entryX=0.5;entryY=0;entryDx=0;entryDy=0;endArrow=none;endFill=0;" parent="1" source="l4y7giBjrZG4BQ_seJTM-4" target="l4y7giBjrZG4BQ_seJTM-14" edge="1">
          <mxGeometry relative="1" as="geometry" />
        </mxCell>
        <mxCell id="l4y7giBjrZG4BQ_seJTM-4" value="Section" style="swimlane;whiteSpace=wrap;html=1;" parent="1" vertex="1">
          <mxGeometry x="440" y="70" width="200" height="70" as="geometry" />
        </mxCell>
        <mxCell id="l4y7giBjrZG4BQ_seJTM-5" value="&lt;u&gt;Code_section&lt;/u&gt;&lt;br&gt;Date_début_saison_section" style="text;html=1;strokeColor=none;fillColor=none;align=center;verticalAlign=middle;whiteSpace=wrap;rounded=0;" parent="l4y7giBjrZG4BQ_seJTM-4" vertex="1">
          <mxGeometry x="70" y="30" width="60" height="30" as="geometry" />
        </mxCell>
        <mxCell id="l4y7giBjrZG4BQ_seJTM-9" value="1,1" style="text;html=1;strokeColor=none;fillColor=none;align=center;verticalAlign=middle;whiteSpace=wrap;rounded=0;" parent="1" vertex="1">
          <mxGeometry x="210" y="70" width="60" height="30" as="geometry" />
        </mxCell>
        <mxCell id="l4y7giBjrZG4BQ_seJTM-10" value="0,N" style="text;html=1;strokeColor=none;fillColor=none;align=center;verticalAlign=middle;whiteSpace=wrap;rounded=0;" parent="1" vertex="1">
          <mxGeometry x="500" y="130" width="60" height="30" as="geometry" />
        </mxCell>
        <mxCell id="l4y7giBjrZG4BQ_seJTM-14" value="Bénévole" style="swimlane;whiteSpace=wrap;html=1;" parent="1" vertex="1">
          <mxGeometry x="30" y="230" width="200" height="160" as="geometry" />
        </mxCell>
        <mxCell id="l4y7giBjrZG4BQ_seJTM-15" value="&lt;u&gt;&lt;font style=&quot;vertical-align: inherit;&quot;&gt;&lt;font style=&quot;vertical-align: inherit;&quot;&gt;numero_benevole&lt;/font&gt;&lt;/font&gt;&lt;/u&gt;&lt;span style=&quot;font-size:11.0pt;&lt;br/&gt;font-family:&amp;quot;Arial&amp;quot;,sans-serif;mso-fareast-font-family:NSimSun;mso-bidi-font-family:&lt;br/&gt;&amp;quot;Lucida Sans&amp;quot;;mso-ansi-language:EN-US;mso-fareast-language:ZH-CN;mso-bidi-language:&lt;br/&gt;HI&quot; lang=&quot;EN-US&quot;&gt;&lt;font style=&quot;vertical-align: inherit;&quot;&gt;&lt;font style=&quot;vertical-align: inherit;&quot;&gt;, nom_benevole, prenom_benevole, courriel_benevole, telephon_benevole, fonction_benevole&lt;/font&gt;&lt;/font&gt;&lt;/span&gt;" style="text;html=1;strokeColor=none;fillColor=none;align=center;verticalAlign=middle;whiteSpace=wrap;rounded=0;" parent="l4y7giBjrZG4BQ_seJTM-14" vertex="1">
          <mxGeometry x="70" y="65" width="60" height="30" as="geometry" />
        </mxCell>
        <mxCell id="l4y7giBjrZG4BQ_seJTM-19" value="Activité" style="swimlane;whiteSpace=wrap;html=1;" parent="1" vertex="1">
          <mxGeometry x="50" y="570" width="210" height="160" as="geometry" />
        </mxCell>
        <mxCell id="l4y7giBjrZG4BQ_seJTM-20" value="&lt;font style=&quot;vertical-align: inherit;&quot;&gt;&lt;font style=&quot;vertical-align: inherit;&quot;&gt;&lt;font style=&quot;vertical-align: inherit;&quot;&gt;&lt;font style=&quot;vertical-align: inherit;&quot;&gt;&lt;font face=&quot;Arial, sans-serif&quot;&gt;&lt;span style=&quot;font-size: 11pt;&quot;&gt;Nactivite description_activite libelle_activite jour_activite horaire_activite duree_activite tarif_annuel_activite&lt;/span&gt;&lt;/font&gt;&lt;/font&gt;&lt;/font&gt;&lt;/font&gt;&lt;/font&gt;" style="text;html=1;strokeColor=none;fillColor=none;align=center;verticalAlign=middle;whiteSpace=wrap;rounded=0;" parent="l4y7giBjrZG4BQ_seJTM-19" vertex="1">
          <mxGeometry x="75" y="80" width="60" height="30" as="geometry" />
        </mxCell>
        <mxCell id="l4y7giBjrZG4BQ_seJTM-23" value="1,N" style="text;html=1;strokeColor=none;fillColor=none;align=center;verticalAlign=middle;whiteSpace=wrap;rounded=0;" parent="1" vertex="1">
          <mxGeometry x="520" y="230" width="60" height="30" as="geometry" />
        </mxCell>
        <mxCell id="l4y7giBjrZG4BQ_seJTM-31" style="edgeStyle=orthogonalEdgeStyle;rounded=0;orthogonalLoop=1;jettySize=auto;html=1;entryX=0.5;entryY=0;entryDx=0;entryDy=0;endArrow=none;endFill=0;" parent="1" source="l4y7giBjrZG4BQ_seJTM-24" target="l4y7giBjrZG4BQ_seJTM-29" edge="1">
          <mxGeometry relative="1" as="geometry" />
        </mxCell>
        <mxCell id="l4y7giBjrZG4BQ_seJTM-24" value="Adhérent" style="swimlane;whiteSpace=wrap;html=1;" parent="1" vertex="1">
          <mxGeometry x="435" y="480" width="200" height="220" as="geometry" />
        </mxCell>
        <mxCell id="l4y7giBjrZG4BQ_seJTM-25" value="&lt;u&gt;&lt;font style=&quot;vertical-align: inherit;&quot;&gt;&lt;font style=&quot;vertical-align: inherit;&quot;&gt;&lt;font style=&quot;vertical-align: inherit;&quot;&gt;&lt;font style=&quot;vertical-align: inherit;&quot;&gt;numero_adhherent &lt;/font&gt;&lt;/font&gt;&lt;/font&gt;&lt;/font&gt;&lt;/u&gt;&lt;span style=&quot;font-size:11.0pt;&lt;br/&gt;font-family:&amp;quot;Arial&amp;quot;,sans-serif;mso-fareast-font-family:NSimSun;mso-bidi-font-family:&lt;br/&gt;&amp;quot;Lucida Sans&amp;quot;;mso-ansi-language:EN-US;mso-fareast-language:ZH-CN;mso-bidi-language:&lt;br/&gt;HI&quot; lang=&quot;EN-US&quot;&gt;&lt;font style=&quot;vertical-align: inherit;&quot;&gt;&lt;font style=&quot;vertical-align: inherit;&quot;&gt;&lt;font style=&quot;vertical-align: inherit;&quot;&gt;&lt;font style=&quot;vertical-align: inherit;&quot;&gt;&amp;nbsp;nom_adherent, prenom_adhherent, adresse_adherent, code_postal_adherent, ville_adherent, telephon_adherent, courriel_adherent, date_adhesion, age,&lt;/font&gt;&lt;/font&gt;&lt;/font&gt;&lt;/font&gt;&lt;/span&gt;" style="text;html=1;strokeColor=none;fillColor=none;align=center;verticalAlign=middle;whiteSpace=wrap;rounded=0;" parent="l4y7giBjrZG4BQ_seJTM-24" vertex="1">
          <mxGeometry x="70" y="95" width="60" height="30" as="geometry" />
        </mxCell>
        <mxCell id="l4y7giBjrZG4BQ_seJTM-39" value="0,N" style="text;html=1;strokeColor=none;fillColor=none;align=center;verticalAlign=middle;whiteSpace=wrap;rounded=0;" parent="l4y7giBjrZG4BQ_seJTM-24" vertex="1">
          <mxGeometry x="85" y="-20" width="60" height="30" as="geometry" />
        </mxCell>
        <mxCell id="l4y7giBjrZG4BQ_seJTM-29" value="&lt;font style=&quot;vertical-align: inherit;&quot;&gt;&lt;font style=&quot;vertical-align: inherit;&quot;&gt;Cheque&lt;/font&gt;&lt;/font&gt;" style="swimlane;whiteSpace=wrap;html=1;" parent="1" vertex="1">
          <mxGeometry x="435" y="730" width="200" height="90" as="geometry" />
        </mxCell>
        <mxCell id="l4y7giBjrZG4BQ_seJTM-30" value="&lt;u&gt;&lt;font style=&quot;vertical-align: inherit;&quot;&gt;&lt;font style=&quot;vertical-align: inherit;&quot;&gt;numero_cheque&lt;br&gt;&lt;/font&gt;&lt;/font&gt;&lt;/u&gt;&lt;span style=&quot;font-size:11.0pt;font-family:&amp;quot;Arial&amp;quot;,sans-serif;mso-fareast-font-family:&lt;br/&gt;NSimSun;mso-bidi-font-family:&amp;quot;Lucida Sans&amp;quot;;mso-ansi-language:FR;mso-fareast-language:&lt;br/&gt;ZH-CN;mso-bidi-language:HI&quot;&gt;&lt;font style=&quot;vertical-align: inherit;&quot;&gt;&lt;font style=&quot;vertical-align: inherit;&quot;&gt;&amp;nbsp;montant_cheque&lt;/font&gt;&lt;/font&gt;&lt;/span&gt;" style="text;html=1;strokeColor=none;fillColor=none;align=center;verticalAlign=middle;whiteSpace=wrap;rounded=0;" parent="l4y7giBjrZG4BQ_seJTM-29" vertex="1">
          <mxGeometry x="65" y="40" width="60" height="30" as="geometry" />
        </mxCell>
        <mxCell id="l4y7giBjrZG4BQ_seJTM-37" style="edgeStyle=orthogonalEdgeStyle;rounded=0;orthogonalLoop=1;jettySize=auto;html=1;entryX=0.5;entryY=1;entryDx=0;entryDy=0;endArrow=none;endFill=0;" parent="1" source="l4y7giBjrZG4BQ_seJTM-32" target="l4y7giBjrZG4BQ_seJTM-19" edge="1">
          <mxGeometry relative="1" as="geometry" />
        </mxCell>
        <mxCell id="l4y7giBjrZG4BQ_seJTM-32" value="Lieu" style="swimlane;whiteSpace=wrap;html=1;" parent="1" vertex="1">
          <mxGeometry x="30" y="430" width="200" height="80" as="geometry" />
        </mxCell>
        <mxCell id="l4y7giBjrZG4BQ_seJTM-33" value="&lt;u&gt;&lt;font style=&quot;vertical-align: inherit;&quot;&gt;&lt;font style=&quot;vertical-align: inherit;&quot;&gt;nom_lieu &lt;/font&gt;&lt;/font&gt;&lt;/u&gt;&lt;span style=&quot;font-size:11.0pt;font-family:&amp;quot;Arial&amp;quot;,sans-serif;mso-fareast-font-family:&lt;br/&gt;NSimSun;mso-bidi-font-family:&amp;quot;Lucida Sans&amp;quot;;mso-ansi-language:FR;mso-fareast-language:&lt;br/&gt;ZH-CN;mso-bidi-language:HI&quot;&gt;&lt;font style=&quot;vertical-align: inherit;&quot;&gt;&lt;font style=&quot;vertical-align: inherit;&quot;&gt;, capacité&lt;/font&gt;&lt;/font&gt;&lt;/span&gt;&lt;span style=&quot;font-size:11.0pt;font-family:&lt;br/&gt;&amp;quot;Arial&amp;quot;,sans-serif;mso-fareast-font-family:NSimSun;mso-bidi-font-family:&amp;quot;Lucida Sans&amp;quot;;&lt;br/&gt;mso-ansi-language:FR;mso-fareast-language:ZH-CN;mso-bidi-language:HI&quot;&gt;&lt;font style=&quot;vertical-align: inherit;&quot;&gt;&lt;font style=&quot;vertical-align: inherit;&quot;&gt;_lieu, adresse_lieu&lt;/font&gt;&lt;/font&gt;&lt;/span&gt;" style="text;html=1;strokeColor=none;fillColor=none;align=center;verticalAlign=middle;whiteSpace=wrap;rounded=0;" parent="l4y7giBjrZG4BQ_seJTM-32" vertex="1">
          <mxGeometry x="65" y="30" width="60" height="30" as="geometry" />
        </mxCell>
        <mxCell id="l4y7giBjrZG4BQ_seJTM-38" value="0,N" style="text;html=1;strokeColor=none;fillColor=none;align=center;verticalAlign=middle;whiteSpace=wrap;rounded=0;" parent="1" vertex="1">
          <mxGeometry x="220" y="440" width="60" height="30" as="geometry" />
        </mxCell>
        <mxCell id="l4y7giBjrZG4BQ_seJTM-40" value="0,1" style="text;html=1;strokeColor=none;fillColor=none;align=center;verticalAlign=middle;whiteSpace=wrap;rounded=0;" parent="1" vertex="1">
          <mxGeometry x="520" y="710" width="60" height="30" as="geometry" />
        </mxCell>
      </root>
    </mxGraphModel>
  </diagram>
</mxfile>
